<svg xmlns="http://www.w3.org/2000/svg" viewBox="0 0 1448 1086" font-family="DejaVu Sans">
<defs>
 <pattern id="hatch" width="13" height="13" patternUnits="userSpaceOnUse" patternTransform="rotate(45)">
  <rect width="13" height="13" fill="#ffffff"/><line x1="0" y1="0" x2="0" y2="13" stroke="#DCDCDC" stroke-width="1.5"/>
 </pattern>
 <marker id="ah" markerWidth="11" markerHeight="11" refX="8" refY="5.5" orient="auto"><path d="M0,0 L11,5.5 L0,11 Z" fill="#1A1A1A"/></marker>
 <marker id="ad" markerWidth="9" markerHeight="9" refX="7.5" refY="4.5" orient="auto"><path d="M0,0 L9,4.5 L0,9 Z" fill="#1A1A1A"/></marker>
</defs>
<rect x="0" y="0" width="1448" height="1086" fill="#ffffff"/>
<rect x="161" y="112" width="1239" height="812" fill="#ffffff"/>
<line x1="368" y1="112" x2="368" y2="924" stroke="#D9D9D9" stroke-width="1.1" stroke-dasharray="7 7"/>
<line x1="161" y1="247" x2="1400" y2="247" stroke="#D9D9D9" stroke-width="1.1" stroke-dasharray="7 7"/>
<line x1="574" y1="112" x2="574" y2="924" stroke="#D9D9D9" stroke-width="1.1" stroke-dasharray="7 7"/>
<line x1="161" y1="383" x2="1400" y2="383" stroke="#D9D9D9" stroke-width="1.1" stroke-dasharray="7 7"/>
<line x1="780" y1="112" x2="780" y2="924" stroke="#D9D9D9" stroke-width="1.1" stroke-dasharray="7 7"/>
<line x1="161" y1="518" x2="1400" y2="518" stroke="#D9D9D9" stroke-width="1.1" stroke-dasharray="7 7"/>
<line x1="987" y1="112" x2="987" y2="924" stroke="#D9D9D9" stroke-width="1.1" stroke-dasharray="7 7"/>
<line x1="161" y1="653" x2="1400" y2="653" stroke="#D9D9D9" stroke-width="1.1" stroke-dasharray="7 7"/>
<line x1="1194" y1="112" x2="1194" y2="924" stroke="#D9D9D9" stroke-width="1.1" stroke-dasharray="7 7"/>
<line x1="161" y1="789" x2="1400" y2="789" stroke="#D9D9D9" stroke-width="1.1" stroke-dasharray="7 7"/>
<path d="M 161,924 Q 300,679 372,648 C 470,690 540,800 560,924 Z" fill="#FDD2D3"/>
<path d="M 372,648 L 434,609 L 980,400 C 950,470 905,505 877,521 C 877,540 900,560 956,575 C 900,650 840,720 724,760 C 660,790 600,815 560,924 L 560,924 C 540,800 470,690 372,648 Z" fill="#FEECC4"/>
<path d="M 560,924 C 600,815 660,790 724,760 C 840,720 900,650 956,575 C 1050,560 1200,548 1400,548 L 1400,924 Z" fill="#D6E6FB"/>
<path d="M 980,400 L 1400,108 L 1400,548 C 1200,548 1050,560 956,575 C 900,560 877,540 877,521 C 905,505 950,470 980,400 Z" fill="#DFEFD7"/>
<path d="M 161,924 L 161,112 L 1400,112 L 434,609 Q 300,679 161,924 Z" fill="url(#hatch)"/>
<path d="M 161,924 Q 300,679 434,609 L 1400,108" fill="none" stroke="#1A1A1A" stroke-width="3.4"/>
<line x1="161" y1="924" x2="161" y2="92" stroke="#1A1A1A" stroke-width="4" marker-end="url(#ah)"/>
<line x1="161" y1="924" x2="1416" y2="924" stroke="#1A1A1A" stroke-width="4" marker-end="url(#ah)"/>
<text x="724.0" y="60" text-anchor="middle" style="font-family:DejaVu Sans;font-size:50px;font-weight:700" fill="#1A1A1A">Realized Capacity Phase Map</text>
<text x="116" y="118" text-anchor="end" style="font-family:DejaVu Sans;font-size:30px;font-style:italic" fill="#1A1A1A">High</text>
<text x="116" y="916" text-anchor="end" style="font-family:DejaVu Sans;font-size:30px;font-style:italic" fill="#1A1A1A">Low</text>
<text x="161" y="982" text-anchor="middle" style="font-family:DejaVu Sans;font-size:30px;font-style:italic" fill="#1A1A1A">Low</text>
<text x="1396" y="982" text-anchor="middle" style="font-family:DejaVu Sans;font-size:30px;font-style:italic" fill="#1A1A1A">High</text>
<text transform="translate(44,518.0) rotate(-90)" text-anchor="middle" style="font-family:DejaVu Sans;font-size:40px;font-weight:700" fill="#1A1A1A">Dominant-mode Capacity</text>
<text transform="translate(90,518.0) rotate(-90)" text-anchor="middle" fill="#1A1A1A"><tspan dy="0" style="font-family:DejaVu Sans;font-size:27px">normalized </tspan><tspan dy="0" style="font-family:DejaVu Serif;font-style:normal;font-size:27px">log </tspan><tspan dy="0" style="font-family:DejaVu Serif;font-style:italic;font-size:27px">R</tspan><tspan dy="9" style="font-family:DejaVu Serif;font-style:italic;font-size:17px">hard</tspan></text>
<text x="780.5" y="1006" text-anchor="middle" style="font-family:DejaVu Sans;font-size:40px;font-weight:700" fill="#1A1A1A">Diffuse Capacity</text>
<text x="780.5" y="1050" text-anchor="middle" fill="#1A1A1A"><tspan dy="0" style="font-family:DejaVu Sans;font-size:27px">normalized </tspan><tspan dy="0" style="font-family:DejaVu Serif;font-style:normal;font-size:27px">log </tspan><tspan dy="0" style="font-family:DejaVu Serif;font-style:italic;font-size:27px">R</tspan><tspan dy="9" style="font-family:DejaVu Serif;font-style:italic;font-size:17px">soft</tspan></text>
<text transform="translate(470,572) rotate(-27.5)" text-anchor="middle" fill="#1A1A1A"><tspan dy="0" style="font-family:DejaVu Sans;font-weight:700;font-size:33px">Low asymmetry:  </tspan><tspan dy="0" style="font-family:DejaVu Serif;font-style:italic;font-size:33px">R</tspan><tspan dy="11" style="font-family:DejaVu Serif;font-style:italic;font-size:20px">hard</tspan><tspan dy="-11" style="font-family:DejaVu Serif;font-style:normal;font-size:33px"> ≈ </tspan><tspan dy="0" style="font-family:DejaVu Serif;font-style:italic;font-size:33px">R</tspan><tspan dy="11" style="font-family:DejaVu Serif;font-style:italic;font-size:20px">soft</tspan></text>
<text x="470" y="250" text-anchor="middle" fill="#333333"><tspan dy="0" style="font-family:DejaVu Sans;font-weight:700;font-size:36px">Forbidden: </tspan><tspan dy="0" style="font-family:DejaVu Serif;font-style:italic;font-size:36px">R</tspan><tspan dy="12" style="font-family:DejaVu Serif;font-style:italic;font-size:22px">hard</tspan><tspan dy="-12" style="font-family:DejaVu Serif;font-style:normal;font-size:36px"> &gt; </tspan><tspan dy="0" style="font-family:DejaVu Serif;font-style:italic;font-size:36px">R</tspan><tspan dy="12" style="font-family:DejaVu Serif;font-style:italic;font-size:22px">soft</tspan></text>
<text x="470" y="298" text-anchor="middle" fill="#333333"><tspan dy="0" style="font-family:DejaVu Sans;font-style:italic;font-size:29px">ruled out by </tspan><tspan dy="0" style="font-family:DejaVu Serif;font-style:italic;font-size:29px">R</tspan><tspan dy="9" style="font-family:DejaVu Serif;font-style:italic;font-size:18px">hard</tspan><tspan dy="-9" style="font-family:DejaVu Serif;font-style:normal;font-size:29px"> ≤ </tspan><tspan dy="0" style="font-family:DejaVu Serif;font-style:italic;font-size:29px">R</tspan><tspan dy="9" style="font-family:DejaVu Serif;font-style:italic;font-size:18px">soft</tspan></text>
<line x1="898" y1="384" x2="898" y2="634" stroke="#1A1A1A" stroke-width="3.2" marker-start="url(#ad)" marker-end="url(#ad)"/>
<circle cx="898" cy="370" r="12" fill="#1A1A1A"/><circle cx="898" cy="648" r="12" fill="#1A1A1A"/>
<text x="928" y="640" text-anchor="start" style="font-family:DejaVu Sans;font-size:36px;font-weight:700" fill="#1A1A1A">Asymmetry</text>
<text x="928" y="682" text-anchor="start" fill="#1A1A1A"><tspan dy="0" style="font-family:DejaVu Serif;font-style:normal;font-size:31px">Δ</tspan><tspan dy="0" style="font-family:DejaVu Serif;font-style:normal;font-size:31px"> = </tspan><tspan dy="0" style="font-family:DejaVu Serif;font-style:normal;font-size:31px">log </tspan><tspan dy="0" style="font-family:DejaVu Serif;font-style:italic;font-size:31px">R</tspan><tspan dy="10" style="font-family:DejaVu Serif;font-style:italic;font-size:19px">soft</tspan><tspan dy="-10" style="font-family:DejaVu Serif;font-style:normal;font-size:31px"> − </tspan><tspan dy="0" style="font-family:DejaVu Serif;font-style:normal;font-size:31px">log </tspan><tspan dy="0" style="font-family:DejaVu Serif;font-style:italic;font-size:31px">R</tspan><tspan dy="10" style="font-family:DejaVu Serif;font-style:italic;font-size:19px">hard</tspan></text>
<text x="372" y="768" text-anchor="middle" style="font-family:DejaVu Sans;font-size:34px;font-weight:700" fill="#7A0003">Collapsed</text>
<text x="372" y="806" text-anchor="middle" style="font-family:DejaVu Sans;font-size:27px" fill="#222222">low diffuse and</text>
<text x="372" y="839" text-anchor="middle" style="font-family:DejaVu Sans;font-size:27px" fill="#222222">dominant-mode capacity</text>
<text x="675" y="624" text-anchor="middle" style="font-family:DejaVu Sans;font-size:34px;font-weight:700" fill="#9F4802">Compact but coherent</text>
<text x="675" y="662" text-anchor="middle" style="font-family:DejaVu Sans;font-size:27px" fill="#222222">moderate capacity,</text>
<text x="675" y="695" text-anchor="middle" style="font-family:DejaVu Sans;font-size:27px" fill="#222222">low asymmetry</text>
<text x="1190" y="348" text-anchor="middle" style="font-family:DejaVu Sans;font-size:34px;font-weight:700" fill="#034700">Broad and coherent</text>
<text x="1190" y="386" text-anchor="middle" style="font-family:DejaVu Sans;font-size:27px" fill="#222222">high capacity,</text>
<text x="1190" y="419" text-anchor="middle" style="font-family:DejaVu Sans;font-size:27px" fill="#222222">low asymmetry</text>
<text x="1130" y="776" text-anchor="middle" style="font-family:DejaVu Sans;font-size:34px;font-weight:700" fill="#0230B4">Diffuse but brittle</text>
<text x="1130" y="814" text-anchor="middle" style="font-family:DejaVu Sans;font-size:27px" fill="#222222">high diffuse capacity,</text>
<text x="1130" y="847" text-anchor="middle" style="font-family:DejaVu Sans;font-size:27px" fill="#222222">low dominant-mode capacity</text>
</svg>